<mxfile host="app.diagrams.net" modified="2022-11-22T13:37:21.499Z" agent="5.0 (Windows NT 10.0; Win64; x64) AppleWebKit/537.36 (KHTML, like Gecko) Chrome/107.0.0.0 Safari/537.36" etag="V0xEm0OvsXBumaLVy2VR" version="20.5.3" type="github">
  <diagram id="QrT9l6Q3unLujtHbUxjf" name="Page-1">
    <mxGraphModel dx="1260" dy="531" grid="1" gridSize="10" guides="1" tooltips="1" connect="1" arrows="1" fold="1" page="1" pageScale="1" pageWidth="827" pageHeight="1169" math="0" shadow="0">
      <root>
        <mxCell id="0" />
        <mxCell id="1" parent="0" />
        <mxCell id="iGryQK6GJ4onbH7NDJlL-3" value="" style="edgeStyle=orthogonalEdgeStyle;rounded=0;orthogonalLoop=1;jettySize=auto;html=1;" edge="1" parent="1" source="iGryQK6GJ4onbH7NDJlL-1" target="iGryQK6GJ4onbH7NDJlL-2">
          <mxGeometry relative="1" as="geometry" />
        </mxCell>
        <mxCell id="iGryQK6GJ4onbH7NDJlL-1" value="START" style="ellipse;whiteSpace=wrap;html=1;" vertex="1" parent="1">
          <mxGeometry x="371" y="40" width="86" height="50" as="geometry" />
        </mxCell>
        <mxCell id="iGryQK6GJ4onbH7NDJlL-5" value="" style="edgeStyle=orthogonalEdgeStyle;rounded=0;orthogonalLoop=1;jettySize=auto;html=1;" edge="1" parent="1" source="iGryQK6GJ4onbH7NDJlL-2" target="iGryQK6GJ4onbH7NDJlL-4">
          <mxGeometry relative="1" as="geometry" />
        </mxCell>
        <mxCell id="iGryQK6GJ4onbH7NDJlL-2" value="Set x = 0" style="shape=parallelogram;perimeter=parallelogramPerimeter;whiteSpace=wrap;html=1;fixedSize=1;" vertex="1" parent="1">
          <mxGeometry x="354" y="120" width="120" height="60" as="geometry" />
        </mxCell>
        <mxCell id="iGryQK6GJ4onbH7NDJlL-4" value="" style="rounded=0;whiteSpace=wrap;html=1;" vertex="1" parent="1">
          <mxGeometry x="354" y="230" width="120" height="60" as="geometry" />
        </mxCell>
        <mxCell id="iGryQK6GJ4onbH7NDJlL-9" value="" style="edgeStyle=orthogonalEdgeStyle;rounded=0;orthogonalLoop=1;jettySize=auto;html=1;" edge="1" parent="1" source="iGryQK6GJ4onbH7NDJlL-7" target="iGryQK6GJ4onbH7NDJlL-8">
          <mxGeometry relative="1" as="geometry" />
        </mxCell>
        <mxCell id="iGryQK6GJ4onbH7NDJlL-7" value="Let sum = sum + (i *i )" style="shape=process;whiteSpace=wrap;html=1;backgroundOutline=1;" vertex="1" parent="1">
          <mxGeometry x="354" y="230" width="120" height="60" as="geometry" />
        </mxCell>
        <mxCell id="iGryQK6GJ4onbH7NDJlL-11" value="" style="edgeStyle=orthogonalEdgeStyle;rounded=0;orthogonalLoop=1;jettySize=auto;html=1;" edge="1" parent="1" source="iGryQK6GJ4onbH7NDJlL-8">
          <mxGeometry relative="1" as="geometry">
            <mxPoint x="419" y="440" as="targetPoint" />
          </mxGeometry>
        </mxCell>
        <mxCell id="iGryQK6GJ4onbH7NDJlL-8" value="Let i = i&amp;nbsp; + 1" style="rounded=0;whiteSpace=wrap;html=1;" vertex="1" parent="1">
          <mxGeometry x="354" y="330" width="120" height="60" as="geometry" />
        </mxCell>
        <mxCell id="iGryQK6GJ4onbH7NDJlL-12" value="END" style="ellipse;whiteSpace=wrap;html=1;" vertex="1" parent="1">
          <mxGeometry x="379" y="535" width="70" height="50" as="geometry" />
        </mxCell>
        <mxCell id="iGryQK6GJ4onbH7NDJlL-16" value="" style="edgeStyle=orthogonalEdgeStyle;rounded=0;orthogonalLoop=1;jettySize=auto;html=1;" edge="1" parent="1" source="iGryQK6GJ4onbH7NDJlL-15" target="iGryQK6GJ4onbH7NDJlL-12">
          <mxGeometry relative="1" as="geometry" />
        </mxCell>
        <mxCell id="iGryQK6GJ4onbH7NDJlL-15" value="PRINT sum" style="shape=parallelogram;perimeter=parallelogramPerimeter;whiteSpace=wrap;html=1;fixedSize=1;" vertex="1" parent="1">
          <mxGeometry x="355" y="440" width="120" height="60" as="geometry" />
        </mxCell>
        <mxCell id="iGryQK6GJ4onbH7NDJlL-17" value="" style="endArrow=classic;startArrow=classic;html=1;rounded=0;" edge="1" parent="1">
          <mxGeometry width="50" height="50" relative="1" as="geometry">
            <mxPoint x="410" y="410" as="sourcePoint" />
            <mxPoint x="410" y="210" as="targetPoint" />
            <Array as="points">
              <mxPoint x="210" y="410" />
              <mxPoint x="210" y="210" />
            </Array>
          </mxGeometry>
        </mxCell>
        <mxCell id="iGryQK6GJ4onbH7NDJlL-18" value="Loop step 3 through 5&amp;nbsp; until i &amp;lt;= 0" style="text;html=1;strokeColor=none;fillColor=none;align=center;verticalAlign=middle;whiteSpace=wrap;rounded=0;" vertex="1" parent="1">
          <mxGeometry x="220" y="280" width="110" height="80" as="geometry" />
        </mxCell>
      </root>
    </mxGraphModel>
  </diagram>
</mxfile>
